# xmcd
#
# Track frame offsets:
#	150
#	15815
#	32625
#	44185
#	62125
#	77520
#	94052
#	115395
#	138297
#	153740
#	169415
#
# Disc length: 2476 seconds
#
# Revision: 1
# Processed by: cddbd v1.5.2PL0 Copyright (c) Steve Scherf et al.
# Submitted via: EasyCDDAExtractor 11.6.0.1
#
DISCID=8d09aa0b
DTITLE=陈淑桦 - [1992] 淑桦的台湾歌
DYEAR=1992
DGENRE=
TTITLE0=月夜愁
TTITLE1=白牡丹
TTITLE2=阮不知啦
TTITLE3=秋风夜雨
TTITLE4=走马灯
TTITLE5=思想起
TTITLE6=河边春梦
TTITLE7=台东人
TTITLE8=补破网
TTITLE9=孤恋花
TTITLE10=思想起 (演奏曲)
EXTD=
EXTT0=
EXTT1=
EXTT2=
EXTT3=
EXTT4=
EXTT5=
EXTT6=
EXTT7=
EXTT8=
EXTT9=
EXTT10=
PLAYORDER=
